<mxfile host="app.diagrams.net" agent="Mozilla/5.0 (Windows NT 10.0; Win64; x64) AppleWebKit/537.36 (KHTML, like Gecko) Chrome/130.0.0.0 Safari/537.36" version="24.8.4">
  <diagram name="Page-1" id="cJTj6SuAofFacO9akcMA">
    <mxGraphModel dx="2607" dy="1356" grid="1" gridSize="10" guides="1" tooltips="1" connect="1" arrows="1" fold="1" page="1" pageScale="1" pageWidth="1169" pageHeight="827" math="0" shadow="0">
      <root>
        <mxCell id="0" />
        <mxCell id="1" parent="0" />
        <mxCell id="9K4qRzpfIhnjsjTRQEIg-84" value="&lt;div&gt;&lt;br/&gt;&lt;/div&gt;" style="rounded=0;whiteSpace=wrap;html=1;sketch=1;curveFitting=1;jiggle=2;movable=1;resizable=1;rotatable=1;deletable=1;editable=1;locked=0;connectable=1;strokeColor=#8c4fff;" vertex="1" parent="1">
          <mxGeometry x="329" y="237" width="621" height="303" as="geometry" />
        </mxCell>
        <mxCell id="9K4qRzpfIhnjsjTRQEIg-3" value="&lt;div&gt;&lt;br/&gt;&lt;/div&gt;" style="rounded=0;whiteSpace=wrap;html=1;sketch=1;curveFitting=1;jiggle=2;movable=1;resizable=1;rotatable=1;deletable=1;editable=1;locked=0;connectable=1;strokeColor=#8c4fff;" vertex="1" parent="1">
          <mxGeometry x="278.4" y="960" width="840" height="660" as="geometry" />
        </mxCell>
        <mxCell id="9K4qRzpfIhnjsjTRQEIg-32" value="" style="rounded=0;whiteSpace=wrap;html=1;sketch=1;curveFitting=1;jiggle=2;strokeColor=#ba141a;" vertex="1" parent="1">
          <mxGeometry x="848.4" y="1290" width="190" height="180" as="geometry" />
        </mxCell>
        <mxCell id="9K4qRzpfIhnjsjTRQEIg-38" style="edgeStyle=orthogonalEdgeStyle;rounded=0;orthogonalLoop=1;jettySize=auto;html=1;entryX=0;entryY=0.5;entryDx=0;entryDy=0;sketch=1;curveFitting=1;jiggle=2;" edge="1" parent="1" source="9K4qRzpfIhnjsjTRQEIg-1" target="9K4qRzpfIhnjsjTRQEIg-5">
          <mxGeometry relative="1" as="geometry" />
        </mxCell>
        <mxCell id="9K4qRzpfIhnjsjTRQEIg-1" value="Comerciante" style="image;html=1;image=img/lib/clip_art/people/Suit_Man_Green_Black_128x128.png;rounded=0;strokeColor=default;align=center;verticalAlign=top;fontFamily=Nanum Pen Script;fontSize=17;fontColor=default;labelBackgroundColor=default;shadow=1;fontSource=https%3A%2F%2Ffonts.googleapis.com%2Fcss%3Ffamily%3DNanum%2BPen%2BScript;" vertex="1" parent="1">
          <mxGeometry x="51" y="1206" width="80" height="70" as="geometry" />
        </mxCell>
        <mxCell id="9K4qRzpfIhnjsjTRQEIg-4" style="edgeStyle=orthogonalEdgeStyle;shape=connector;rounded=0;orthogonalLoop=1;jettySize=auto;html=1;exitX=1;exitY=0.5;exitDx=0;exitDy=0;strokeColor=default;align=center;verticalAlign=middle;fontFamily=Helvetica;fontSize=11;fontColor=default;labelBackgroundColor=default;endArrow=classic;sketch=1;jiggle=2;curveFitting=1;entryX=0;entryY=0.5;entryDx=0;entryDy=0;entryPerimeter=0;" edge="1" parent="1" source="9K4qRzpfIhnjsjTRQEIg-5" target="9K4qRzpfIhnjsjTRQEIg-13">
          <mxGeometry relative="1" as="geometry">
            <mxPoint x="258.4" y="1252.2297183098594" as="targetPoint" />
          </mxGeometry>
        </mxCell>
        <mxCell id="9K4qRzpfIhnjsjTRQEIg-5" value="Frontend" style="image;html=1;image=img/lib/clip_art/computers/Network_128x128.png;fontFamily=Nanum Pen Script;fontSource=https%3A%2F%2Ffonts.googleapis.com%2Fcss%3Ffamily%3DNanum%2BPen%2BScript;fontSize=17;" vertex="1" parent="1">
          <mxGeometry x="180.5" y="1210" width="50" height="60" as="geometry" />
        </mxCell>
        <mxCell id="9K4qRzpfIhnjsjTRQEIg-7" value="" style="rounded=0;whiteSpace=wrap;html=1;sketch=1;curveFitting=1;jiggle=2;strokeColor=#c925d1;" vertex="1" parent="1">
          <mxGeometry x="848.4" y="1020" width="190" height="190" as="geometry" />
        </mxCell>
        <mxCell id="9K4qRzpfIhnjsjTRQEIg-8" value="RDS" style="sketch=0;points=[[0,0,0],[0.25,0,0],[0.5,0,0],[0.75,0,0],[1,0,0],[0,1,0],[0.25,1,0],[0.5,1,0],[0.75,1,0],[1,1,0],[0,0.25,0],[0,0.5,0],[0,0.75,0],[1,0.25,0],[1,0.5,0],[1,0.75,0]];outlineConnect=0;fontColor=#c925d1;fillColor=#C925D1;strokeColor=#ffffff;dashed=0;verticalLabelPosition=bottom;verticalAlign=top;align=center;html=1;fontSize=18;fontStyle=1;aspect=fixed;shape=mxgraph.aws4.resourceIcon;resIcon=mxgraph.aws4.rds;fontFamily=Nanum Pen Script;fontSource=https%3A%2F%2Ffonts.googleapis.com%2Fcss%3Ffamily%3DNanum%2BPen%2BScript;" vertex="1" parent="1">
          <mxGeometry x="848.4" y="1020" width="35" height="35" as="geometry" />
        </mxCell>
        <mxCell id="9K4qRzpfIhnjsjTRQEIg-9" value="VPC" style="sketch=0;points=[[0,0,0],[0.25,0,0],[0.5,0,0],[0.75,0,0],[1,0,0],[0,1,0],[0.25,1,0],[0.5,1,0],[0.75,1,0],[1,1,0],[0,0.25,0],[0,0.5,0],[0,0.75,0],[1,0.25,0],[1,0.5,0],[1,0.75,0]];outlineConnect=0;fontColor=#8c4fff;fillColor=#8C4FFF;strokeColor=#ffffff;dashed=0;verticalLabelPosition=bottom;verticalAlign=top;align=center;html=1;fontSize=18;fontStyle=1;aspect=fixed;shape=mxgraph.aws4.resourceIcon;resIcon=mxgraph.aws4.vpc;shadow=1;fontFamily=Nanum Pen Script;fontSource=https%3A%2F%2Ffonts.googleapis.com%2Fcss%3Ffamily%3DNanum%2BPen%2BScript;movable=1;resizable=1;rotatable=1;deletable=1;editable=1;locked=0;connectable=1;" vertex="1" parent="1">
          <mxGeometry x="278.40000000000003" y="960" width="30" height="30" as="geometry" />
        </mxCell>
        <mxCell id="9K4qRzpfIhnjsjTRQEIg-10" value="MY SQL" style="shape=cylinder3;boundedLbl=1;backgroundOutline=1;size=15;fontFamily=Nanum Pen Script;fontSize=17;fontColor=default;labelBackgroundColor=none;rounded=0;sketch=1;jiggle=2;curveFitting=1;strokeColor=default;align=center;verticalAlign=top;labelBorderColor=none;textShadow=0;gradientColor=default;shadow=1;labelPosition=center;verticalLabelPosition=bottom;fontSource=https%3A%2F%2Ffonts.googleapis.com%2Fcss%3Ffamily%3DNanum%2BPen%2BScript;html=1;" vertex="1" parent="1">
          <mxGeometry x="913.4" y="1060" width="60" height="100" as="geometry" />
        </mxCell>
        <mxCell id="9K4qRzpfIhnjsjTRQEIg-11" style="edgeStyle=orthogonalEdgeStyle;rounded=0;orthogonalLoop=1;jettySize=auto;html=1;entryX=0;entryY=0.5;entryDx=0;entryDy=0;sketch=1;curveFitting=1;jiggle=2;exitX=1;exitY=0.5;exitDx=0;exitDy=0;" edge="1" parent="1" source="9K4qRzpfIhnjsjTRQEIg-15" target="9K4qRzpfIhnjsjTRQEIg-7">
          <mxGeometry relative="1" as="geometry">
            <mxPoint x="758.4" y="1230" as="sourcePoint" />
          </mxGeometry>
        </mxCell>
        <mxCell id="9K4qRzpfIhnjsjTRQEIg-13" value="API GATEWAY" style="sketch=0;points=[[0,0,0],[0.25,0,0],[0.5,0,0],[0.75,0,0],[1,0,0],[0,1,0],[0.25,1,0],[0.5,1,0],[0.75,1,0],[1,1,0],[0,0.25,0],[0,0.5,0],[0,0.75,0],[1,0.25,0],[1,0.5,0],[1,0.75,0]];outlineConnect=0;fontColor=#232F3E;fillColor=#8C4FFF;strokeColor=#ffffff;dashed=0;verticalLabelPosition=bottom;verticalAlign=top;align=center;html=1;fontSize=17;fontStyle=0;aspect=fixed;shape=mxgraph.aws4.resourceIcon;resIcon=mxgraph.aws4.api_gateway;fontFamily=Nanum Pen Script;fontSource=https%3A%2F%2Ffonts.googleapis.com%2Fcss%3Ffamily%3DNanum%2BPen%2BScript;" vertex="1" parent="1">
          <mxGeometry x="319.29999999999995" y="1202" width="78" height="78" as="geometry" />
        </mxCell>
        <mxCell id="9K4qRzpfIhnjsjTRQEIg-37" style="edgeStyle=orthogonalEdgeStyle;rounded=0;orthogonalLoop=1;jettySize=auto;html=1;entryX=0;entryY=0.5;entryDx=0;entryDy=0;sketch=1;curveFitting=1;jiggle=2;" edge="1" parent="1" source="9K4qRzpfIhnjsjTRQEIg-15" target="9K4qRzpfIhnjsjTRQEIg-32">
          <mxGeometry relative="1" as="geometry" />
        </mxCell>
        <mxCell id="9K4qRzpfIhnjsjTRQEIg-17" value="API" style="text;html=1;align=center;verticalAlign=middle;whiteSpace=wrap;rounded=0;sketch=1;curveFitting=1;jiggle=2;fontFamily=Nanum Pen Script;fontSize=21;fontColor=default;labelBackgroundColor=default;fontSource=https%3A%2F%2Ffonts.googleapis.com%2Fcss%3Ffamily%3DNanum%2BPen%2BScript;fontStyle=1" vertex="1" parent="1">
          <mxGeometry x="546.6500000000001" y="990" width="101" height="30" as="geometry" />
        </mxCell>
        <mxCell id="9K4qRzpfIhnjsjTRQEIg-15" value="" style="rounded=0;whiteSpace=wrap;html=1;sketch=1;curveFitting=1;jiggle=2;strokeColor=#ed7100;shadow=1;" vertex="1" parent="1">
          <mxGeometry x="455.2" y="1020" width="283.9" height="428" as="geometry" />
        </mxCell>
        <mxCell id="9K4qRzpfIhnjsjTRQEIg-16" value="EKS&lt;div style=&quot;font-size: 18px;&quot;&gt;&lt;br style=&quot;font-size: 18px;&quot;&gt;&lt;/div&gt;" style="sketch=0;points=[[0,0,0],[0.25,0,0],[0.5,0,0],[0.75,0,0],[1,0,0],[0,1,0],[0.25,1,0],[0.5,1,0],[0.75,1,0],[1,1,0],[0,0.25,0],[0,0.5,0],[0,0.75,0],[1,0.25,0],[1,0.5,0],[1,0.75,0]];outlineConnect=0;fontColor=#ed7100;fillColor=#ED7100;strokeColor=#ffffff;dashed=0;verticalLabelPosition=bottom;verticalAlign=top;align=center;html=1;fontSize=18;fontStyle=1;aspect=fixed;shape=mxgraph.aws4.resourceIcon;resIcon=mxgraph.aws4.eks;shadow=1;fontFamily=Nanum Pen Script;fontSource=https%3A%2F%2Ffonts.googleapis.com%2Fcss%3Ffamily%3DNanum%2BPen%2BScript;" vertex="1" parent="1">
          <mxGeometry x="455.2" y="1020" width="40" height="40" as="geometry" />
        </mxCell>
        <mxCell id="9K4qRzpfIhnjsjTRQEIg-18" value="" style="rounded=0;whiteSpace=wrap;html=1;sketch=1;curveFitting=1;jiggle=2;shadow=0;dashed=1;strokeColor=#2875e2;" vertex="1" parent="1">
          <mxGeometry x="587.8" y="1060" width="120" height="360" as="geometry" />
        </mxCell>
        <mxCell id="9K4qRzpfIhnjsjTRQEIg-19" value="" style="aspect=fixed;sketch=0;html=1;dashed=0;whitespace=wrap;verticalLabelPosition=bottom;verticalAlign=top;fillColor=#2875E2;strokeColor=#ffffff;points=[[0.005,0.63,0],[0.1,0.2,0],[0.9,0.2,0],[0.5,0,0],[0.995,0.63,0],[0.72,0.99,0],[0.5,1,0],[0.28,0.99,0]];shape=mxgraph.kubernetes.icon2;kubernetesLabel=1;prIcon=pod" vertex="1" parent="1">
          <mxGeometry x="610.25" y="1093" width="70.83" height="68" as="geometry" />
        </mxCell>
        <mxCell id="9K4qRzpfIhnjsjTRQEIg-28" style="edgeStyle=orthogonalEdgeStyle;rounded=0;orthogonalLoop=1;jettySize=auto;html=1;exitX=0.5;exitY=1;exitDx=0;exitDy=0;exitPerimeter=0;sketch=1;curveFitting=1;jiggle=2;dashed=1;dashPattern=1 4;endArrow=none;endFill=0;" edge="1" parent="1" source="9K4qRzpfIhnjsjTRQEIg-20" target="9K4qRzpfIhnjsjTRQEIg-27">
          <mxGeometry relative="1" as="geometry" />
        </mxCell>
        <mxCell id="9K4qRzpfIhnjsjTRQEIg-20" value="" style="aspect=fixed;sketch=0;html=1;dashed=0;whitespace=wrap;verticalLabelPosition=bottom;verticalAlign=top;fillColor=#2875E2;strokeColor=#ffffff;points=[[0.005,0.63,0],[0.1,0.2,0],[0.9,0.2,0],[0.5,0,0],[0.995,0.63,0],[0.72,0.99,0],[0.5,1,0],[0.28,0.99,0]];shape=mxgraph.kubernetes.icon2;kubernetesLabel=1;prIcon=pod" vertex="1" parent="1">
          <mxGeometry x="610.25" y="1186" width="70.83" height="68" as="geometry" />
        </mxCell>
        <mxCell id="9K4qRzpfIhnjsjTRQEIg-69" value="BANCO DE DADOS&lt;div&gt;(Relacional)&lt;/div&gt;" style="text;html=1;align=center;verticalAlign=middle;whiteSpace=wrap;rounded=0;sketch=1;curveFitting=1;jiggle=2;fontFamily=Nanum Pen Script;fontSize=21;fontColor=default;labelBackgroundColor=default;fontSource=https%3A%2F%2Ffonts.googleapis.com%2Fcss%3Ffamily%3DNanum%2BPen%2BScript;fontStyle=1" vertex="1" parent="1">
          <mxGeometry x="874.6" y="973" width="137.6" height="40" as="geometry" />
        </mxCell>
        <mxCell id="9K4qRzpfIhnjsjTRQEIg-21" style="edgeStyle=orthogonalEdgeStyle;rounded=0;orthogonalLoop=1;jettySize=auto;html=1;entryX=0;entryY=0.5;entryDx=0;entryDy=0;" edge="1" parent="1" source="9K4qRzpfIhnjsjTRQEIg-22" target="9K4qRzpfIhnjsjTRQEIg-18">
          <mxGeometry relative="1" as="geometry" />
        </mxCell>
        <mxCell id="9K4qRzpfIhnjsjTRQEIg-22" value="" style="aspect=fixed;sketch=0;html=1;dashed=0;whitespace=wrap;verticalLabelPosition=bottom;verticalAlign=top;fillColor=#2875E2;strokeColor=#ffffff;points=[[0.005,0.63,0],[0.1,0.2,0],[0.9,0.2,0],[0.5,0,0],[0.995,0.63,0],[0.72,0.99,0],[0.5,1,0],[0.28,0.99,0]];shape=mxgraph.kubernetes.icon2;kubernetesLabel=1;prIcon=svc" vertex="1" parent="1">
          <mxGeometry x="483.3" y="1200" width="70" height="67.2" as="geometry" />
        </mxCell>
        <mxCell id="9K4qRzpfIhnjsjTRQEIg-23" value="LOAD BALANCER" style="text;html=1;align=center;verticalAlign=middle;whiteSpace=wrap;rounded=0;sketch=1;curveFitting=1;jiggle=2;fontFamily=Nanum Pen Script;fontSize=17;fontColor=default;labelBackgroundColor=default;fontSource=https%3A%2F%2Ffonts.googleapis.com%2Fcss%3Ffamily%3DNanum%2BPen%2BScript;" vertex="1" parent="1">
          <mxGeometry x="467.8000000000001" y="1156" width="101" height="30" as="geometry" />
        </mxCell>
        <mxCell id="9K4qRzpfIhnjsjTRQEIg-24" value="" style="endArrow=none;html=1;rounded=0;entryX=0.5;entryY=1;entryDx=0;entryDy=0;entryPerimeter=0;exitX=0.5;exitY=0;exitDx=0;exitDy=0;exitPerimeter=0;sketch=1;curveFitting=1;jiggle=2;dashed=1;" edge="1" parent="1" source="9K4qRzpfIhnjsjTRQEIg-20" target="9K4qRzpfIhnjsjTRQEIg-19">
          <mxGeometry width="50" height="50" relative="1" as="geometry">
            <mxPoint x="541.15" y="1300" as="sourcePoint" />
            <mxPoint x="591.15" y="1250" as="targetPoint" />
          </mxGeometry>
        </mxCell>
        <mxCell id="9K4qRzpfIhnjsjTRQEIg-27" value="" style="aspect=fixed;sketch=0;html=1;dashed=0;whitespace=wrap;verticalLabelPosition=bottom;verticalAlign=top;fillColor=#2875E2;strokeColor=#ffffff;points=[[0.005,0.63,0],[0.1,0.2,0],[0.9,0.2,0],[0.5,0,0],[0.995,0.63,0],[0.72,0.99,0],[0.5,1,0],[0.28,0.99,0]];shape=mxgraph.kubernetes.icon2;kubernetesLabel=1;prIcon=pod" vertex="1" parent="1">
          <mxGeometry x="610.25" y="1330" width="70.83" height="68" as="geometry" />
        </mxCell>
        <mxCell id="9K4qRzpfIhnjsjTRQEIg-29" value="N" style="text;html=1;align=center;verticalAlign=middle;whiteSpace=wrap;rounded=0;sketch=1;curveFitting=1;jiggle=2;fontFamily=Nanum Pen Script;fontSize=17;fontColor=default;labelBackgroundColor=default;fontSource=https%3A%2F%2Ffonts.googleapis.com%2Fcss%3Ffamily%3DNanum%2BPen%2BScript;" vertex="1" parent="1">
          <mxGeometry x="637.8" y="1280" width="30" height="30" as="geometry" />
        </mxCell>
        <mxCell id="9K4qRzpfIhnjsjTRQEIg-30" value="REDIS" style="image;sketch=0;aspect=fixed;html=1;points=[];align=center;fontSize=17;image=img/lib/mscae/Cache_Redis_Product.svg;fontFamily=Nanum Pen Script;fontSource=https%3A%2F%2Ffonts.googleapis.com%2Fcss%3Ffamily%3DNanum%2BPen%2BScript;" vertex="1" parent="1">
          <mxGeometry x="918.4" y="1369" width="50" height="42" as="geometry" />
        </mxCell>
        <mxCell id="9K4qRzpfIhnjsjTRQEIg-34" value="ElastiCache" style="sketch=0;points=[[0,0,0],[0.25,0,0],[0.5,0,0],[0.75,0,0],[1,0,0],[0,1,0],[0.25,1,0],[0.5,1,0],[0.75,1,0],[1,1,0],[0,0.25,0],[0,0.5,0],[0,0.75,0],[1,0.25,0],[1,0.5,0],[1,0.75,0]];outlineConnect=0;fontColor=#ba141a;fillColor=#ba141a;strokeColor=#ffffff;dashed=0;verticalLabelPosition=bottom;verticalAlign=top;align=left;html=1;fontSize=18;fontStyle=1;aspect=fixed;shape=mxgraph.aws4.resourceIcon;resIcon=mxgraph.aws4.elasticache;fontFamily=Nanum Pen Script;fontSource=https%3A%2F%2Ffonts.googleapis.com%2Fcss%3Ffamily%3DNanum%2BPen%2BScript;" vertex="1" parent="1">
          <mxGeometry x="851.4" y="1290" width="40" height="40" as="geometry" />
        </mxCell>
        <mxCell id="9K4qRzpfIhnjsjTRQEIg-39" value="&lt;span style=&quot;background-color: rgb(249, 249, 195);&quot;&gt;FLUXO DE CAIXA&lt;/span&gt;" style="shape=parallelogram;perimeter=parallelogramPerimeter;whiteSpace=wrap;html=1;fixedSize=1;fontFamily=Helvetica;fontSize=24;labelBackgroundColor=default;rounded=0;sketch=1;jiggle=2;curveFitting=1;align=center;verticalAlign=middle;fillColor=#ffff88;strokeColor=default;fillStyle=zigzag;fontColor=default;" vertex="1" parent="1">
          <mxGeometry x="417.8" y="860" width="290" height="70" as="geometry" />
        </mxCell>
        <mxCell id="9K4qRzpfIhnjsjTRQEIg-66" value="COGNITO" style="points=[[0,0,0],[0.25,0,0],[0.5,0,0],[0.75,0,0],[1,0,0],[0,1,0],[0.25,1,0],[0.5,1,0],[0.75,1,0],[1,1,0],[0,0.25,0],[0,0.5,0],[0,0.75,0],[1,0.25,0],[1,0.5,0],[1,0.75,0]];outlineConnect=0;fontColor=#232F3E;fillColor=#DD344C;strokeColor=#ffffff;dashed=0;verticalLabelPosition=bottom;verticalAlign=top;align=center;html=1;fontSize=20;fontStyle=0;aspect=fixed;shape=mxgraph.aws4.resourceIcon;resIcon=mxgraph.aws4.cognito;shadow=1;fontFamily=Nanum Pen Script;fontSource=https%3A%2F%2Ffonts.googleapis.com%2Fcss%3Ffamily%3DNanum%2BPen%2BScript;" vertex="1" parent="1">
          <mxGeometry x="812.4" y="351" width="79" height="79" as="geometry" />
        </mxCell>
        <mxCell id="9K4qRzpfIhnjsjTRQEIg-67" style="edgeStyle=orthogonalEdgeStyle;rounded=0;orthogonalLoop=1;jettySize=auto;html=1;sketch=1;curveFitting=1;jiggle=2;" edge="1" parent="1" source="9K4qRzpfIhnjsjTRQEIg-68" target="9K4qRzpfIhnjsjTRQEIg-66">
          <mxGeometry relative="1" as="geometry" />
        </mxCell>
        <mxCell id="9K4qRzpfIhnjsjTRQEIg-68" value="LAMBDA" style="sketch=0;outlineConnect=0;fontColor=#232F3E;gradientColor=none;fillColor=#ED7100;strokeColor=none;dashed=0;verticalLabelPosition=bottom;verticalAlign=top;align=center;html=1;fontSize=17;fontStyle=0;aspect=fixed;pointerEvents=1;shape=mxgraph.aws4.lambda_function;fontFamily=Nanum Pen Script;fontSource=https%3A%2F%2Ffonts.googleapis.com%2Fcss%3Ffamily%3DNanum%2BPen%2BScript;" vertex="1" parent="1">
          <mxGeometry x="610.8000000000001" y="349" width="83" height="83" as="geometry" />
        </mxCell>
        <mxCell id="9K4qRzpfIhnjsjTRQEIg-73" style="edgeStyle=orthogonalEdgeStyle;rounded=0;orthogonalLoop=1;jettySize=auto;html=1;sketch=1;curveFitting=1;jiggle=2;" edge="1" parent="1" source="9K4qRzpfIhnjsjTRQEIg-71" target="9K4qRzpfIhnjsjTRQEIg-68">
          <mxGeometry relative="1" as="geometry" />
        </mxCell>
        <mxCell id="9K4qRzpfIhnjsjTRQEIg-71" value="API GATEWAY" style="sketch=0;points=[[0,0,0],[0.25,0,0],[0.5,0,0],[0.75,0,0],[1,0,0],[0,1,0],[0.25,1,0],[0.5,1,0],[0.75,1,0],[1,1,0],[0,0.25,0],[0,0.5,0],[0,0.75,0],[1,0.25,0],[1,0.5,0],[1,0.75,0]];outlineConnect=0;fontColor=#232F3E;fillColor=#8C4FFF;strokeColor=#ffffff;dashed=0;verticalLabelPosition=bottom;verticalAlign=top;align=center;fontSize=17;fontStyle=0;aspect=fixed;shape=mxgraph.aws4.resourceIcon;resIcon=mxgraph.aws4.api_gateway;fontFamily=Nanum Pen Script;fontSource=https%3A%2F%2Ffonts.googleapis.com%2Fcss%3Ffamily%3DNanum%2BPen%2BScript;" vertex="1" parent="1">
          <mxGeometry x="390" y="350" width="78" height="78" as="geometry" />
        </mxCell>
        <mxCell id="9K4qRzpfIhnjsjTRQEIg-77" value="&lt;span style=&quot;background-color: rgb(249, 249, 195);&quot;&gt;AUTENTICAÇÃO&lt;/span&gt;" style="shape=parallelogram;perimeter=parallelogramPerimeter;whiteSpace=wrap;html=1;fixedSize=1;fontFamily=Helvetica;fontSize=24;labelBackgroundColor=default;rounded=0;sketch=1;jiggle=2;curveFitting=1;align=center;verticalAlign=middle;fillColor=#ffff88;strokeColor=default;fillStyle=zigzag;fontColor=default;" vertex="1" parent="1">
          <mxGeometry x="389.99999999999994" y="120" width="290" height="70" as="geometry" />
        </mxCell>
        <mxCell id="9K4qRzpfIhnjsjTRQEIg-78" style="edgeStyle=orthogonalEdgeStyle;rounded=0;orthogonalLoop=1;jettySize=auto;html=1;entryX=0;entryY=0.5;entryDx=0;entryDy=0;sketch=1;curveFitting=1;jiggle=2;" edge="1" parent="1" source="9K4qRzpfIhnjsjTRQEIg-79" target="9K4qRzpfIhnjsjTRQEIg-81">
          <mxGeometry relative="1" as="geometry" />
        </mxCell>
        <mxCell id="9K4qRzpfIhnjsjTRQEIg-79" value="Comerciante" style="image;html=1;image=img/lib/clip_art/people/Suit_Man_Green_Black_128x128.png;rounded=0;strokeColor=default;align=center;verticalAlign=top;fontFamily=Nanum Pen Script;fontSize=17;fontColor=default;labelBackgroundColor=default;shadow=1;fontSource=https%3A%2F%2Ffonts.googleapis.com%2Fcss%3Ffamily%3DNanum%2BPen%2BScript;" vertex="1" parent="1">
          <mxGeometry x="80.5" y="355" width="80" height="70" as="geometry" />
        </mxCell>
        <mxCell id="9K4qRzpfIhnjsjTRQEIg-86" style="edgeStyle=orthogonalEdgeStyle;rounded=0;orthogonalLoop=1;jettySize=auto;html=1;sketch=1;curveFitting=1;jiggle=2;" edge="1" parent="1" source="9K4qRzpfIhnjsjTRQEIg-81" target="9K4qRzpfIhnjsjTRQEIg-71">
          <mxGeometry relative="1" as="geometry" />
        </mxCell>
        <mxCell id="9K4qRzpfIhnjsjTRQEIg-81" value="Frontend" style="image;html=1;image=img/lib/clip_art/computers/Network_128x128.png;fontFamily=Nanum Pen Script;fontSource=https%3A%2F%2Ffonts.googleapis.com%2Fcss%3Ffamily%3DNanum%2BPen%2BScript;fontSize=17;" vertex="1" parent="1">
          <mxGeometry x="220" y="360" width="50" height="60" as="geometry" />
        </mxCell>
        <mxCell id="9K4qRzpfIhnjsjTRQEIg-83" value="BANCO DE DADOS&lt;div&gt;(Cache)&lt;/div&gt;" style="text;html=1;align=center;verticalAlign=middle;whiteSpace=wrap;rounded=0;sketch=1;curveFitting=1;jiggle=2;fontFamily=Nanum Pen Script;fontSize=21;fontColor=default;labelBackgroundColor=default;fontSource=https%3A%2F%2Ffonts.googleapis.com%2Fcss%3Ffamily%3DNanum%2BPen%2BScript;fontStyle=1" vertex="1" parent="1">
          <mxGeometry x="874.6" y="1240" width="137.6" height="40" as="geometry" />
        </mxCell>
        <mxCell id="9K4qRzpfIhnjsjTRQEIg-85" value="VPC" style="sketch=0;points=[[0,0,0],[0.25,0,0],[0.5,0,0],[0.75,0,0],[1,0,0],[0,1,0],[0.25,1,0],[0.5,1,0],[0.75,1,0],[1,1,0],[0,0.25,0],[0,0.5,0],[0,0.75,0],[1,0.25,0],[1,0.5,0],[1,0.75,0]];outlineConnect=0;fontColor=#8c4fff;fillColor=#8C4FFF;strokeColor=#ffffff;dashed=0;verticalLabelPosition=bottom;verticalAlign=top;align=center;html=1;fontSize=18;fontStyle=1;aspect=fixed;shape=mxgraph.aws4.resourceIcon;resIcon=mxgraph.aws4.vpc;shadow=1;fontFamily=Nanum Pen Script;fontSource=https%3A%2F%2Ffonts.googleapis.com%2Fcss%3Ffamily%3DNanum%2BPen%2BScript;movable=1;resizable=1;rotatable=1;deletable=1;editable=1;locked=0;connectable=1;" vertex="1" parent="1">
          <mxGeometry x="329.00000000000006" y="237" width="30" height="30" as="geometry" />
        </mxCell>
        <mxCell id="9K4qRzpfIhnjsjTRQEIg-12" style="edgeStyle=orthogonalEdgeStyle;rounded=0;orthogonalLoop=1;jettySize=auto;html=1;exitX=1;exitY=0.5;exitDx=0;exitDy=0;exitPerimeter=0;sketch=1;curveFitting=1;jiggle=2;entryX=0.005;entryY=0.63;entryDx=0;entryDy=0;entryPerimeter=0;" edge="1" parent="1" source="9K4qRzpfIhnjsjTRQEIg-13" target="9K4qRzpfIhnjsjTRQEIg-22">
          <mxGeometry relative="1" as="geometry">
            <mxPoint x="568.4" y="1230" as="targetPoint" />
          </mxGeometry>
        </mxCell>
        <mxCell id="9K4qRzpfIhnjsjTRQEIg-87" value="CLOUDWATCH" style="sketch=0;points=[[0,0,0],[0.25,0,0],[0.5,0,0],[0.75,0,0],[1,0,0],[0,1,0],[0.25,1,0],[0.5,1,0],[0.75,1,0],[1,1,0],[0,0.25,0],[0,0.5,0],[0,0.75,0],[1,0.25,0],[1,0.5,0],[1,0.75,0]];points=[[0,0,0],[0.25,0,0],[0.5,0,0],[0.75,0,0],[1,0,0],[0,1,0],[0.25,1,0],[0.5,1,0],[0.75,1,0],[1,1,0],[0,0.25,0],[0,0.5,0],[0,0.75,0],[1,0.25,0],[1,0.5,0],[1,0.75,0]];outlineConnect=0;fontColor=#232F3E;fillColor=#E7157B;strokeColor=#ffffff;dashed=0;verticalLabelPosition=bottom;verticalAlign=top;align=center;html=1;fontSize=17;fontStyle=0;aspect=fixed;shape=mxgraph.aws4.resourceIcon;resIcon=mxgraph.aws4.cloudwatch_2;fontFamily=Nanum Pen Script;fontSource=https%3A%2F%2Ffonts.googleapis.com%2Fcss%3Ffamily%3DNanum%2BPen%2BScript;" vertex="1" parent="1">
          <mxGeometry x="730" y="1506" width="78" height="78" as="geometry" />
        </mxCell>
        <mxCell id="9K4qRzpfIhnjsjTRQEIg-88" style="edgeStyle=orthogonalEdgeStyle;rounded=0;orthogonalLoop=1;jettySize=auto;html=1;exitX=0.5;exitY=1;exitDx=0;exitDy=0;entryX=0;entryY=0.5;entryDx=0;entryDy=0;entryPerimeter=0;sketch=1;curveFitting=1;jiggle=2;" edge="1" parent="1" source="9K4qRzpfIhnjsjTRQEIg-15" target="9K4qRzpfIhnjsjTRQEIg-87">
          <mxGeometry relative="1" as="geometry" />
        </mxCell>
        <mxCell id="9K4qRzpfIhnjsjTRQEIg-91" value="LOGS" style="text;html=1;align=center;verticalAlign=middle;whiteSpace=wrap;rounded=0;sketch=1;curveFitting=1;jiggle=2;fontFamily=Nanum Pen Script;fontSize=21;fontColor=default;labelBackgroundColor=default;fontSource=https%3A%2F%2Ffonts.googleapis.com%2Fcss%3Ffamily%3DNanum%2BPen%2BScript;fontStyle=1" vertex="1" parent="1">
          <mxGeometry x="718.5000000000001" y="1476" width="101" height="30" as="geometry" />
        </mxCell>
        <mxCell id="9K4qRzpfIhnjsjTRQEIg-93" value="&lt;div&gt;&lt;br/&gt;&lt;/div&gt;" style="rounded=0;whiteSpace=wrap;html=1;sketch=1;curveFitting=1;jiggle=2;movable=1;resizable=1;rotatable=1;deletable=1;editable=1;locked=0;connectable=1;strokeColor=#8c4fff;" vertex="1" parent="1">
          <mxGeometry x="177.14999999999998" y="1790" width="840" height="660" as="geometry" />
        </mxCell>
        <mxCell id="9K4qRzpfIhnjsjTRQEIg-94" value="" style="rounded=0;whiteSpace=wrap;html=1;sketch=1;curveFitting=1;jiggle=2;strokeColor=#ba141a;" vertex="1" parent="1">
          <mxGeometry x="747.15" y="2180" width="190" height="180" as="geometry" />
        </mxCell>
        <mxCell id="9K4qRzpfIhnjsjTRQEIg-100" value="" style="rounded=0;whiteSpace=wrap;html=1;sketch=1;curveFitting=1;jiggle=2;strokeColor=#c925d1;" vertex="1" parent="1">
          <mxGeometry x="747.15" y="1850" width="190" height="190" as="geometry" />
        </mxCell>
        <mxCell id="9K4qRzpfIhnjsjTRQEIg-101" value="RDS" style="sketch=0;points=[[0,0,0],[0.25,0,0],[0.5,0,0],[0.75,0,0],[1,0,0],[0,1,0],[0.25,1,0],[0.5,1,0],[0.75,1,0],[1,1,0],[0,0.25,0],[0,0.5,0],[0,0.75,0],[1,0.25,0],[1,0.5,0],[1,0.75,0]];outlineConnect=0;fontColor=#c925d1;fillColor=#C925D1;strokeColor=#ffffff;dashed=0;verticalLabelPosition=bottom;verticalAlign=top;align=center;html=1;fontSize=18;fontStyle=1;aspect=fixed;shape=mxgraph.aws4.resourceIcon;resIcon=mxgraph.aws4.rds;fontFamily=Nanum Pen Script;fontSource=https%3A%2F%2Ffonts.googleapis.com%2Fcss%3Ffamily%3DNanum%2BPen%2BScript;" vertex="1" parent="1">
          <mxGeometry x="747.15" y="1850" width="35" height="35" as="geometry" />
        </mxCell>
        <mxCell id="9K4qRzpfIhnjsjTRQEIg-102" value="VPC" style="sketch=0;points=[[0,0,0],[0.25,0,0],[0.5,0,0],[0.75,0,0],[1,0,0],[0,1,0],[0.25,1,0],[0.5,1,0],[0.75,1,0],[1,1,0],[0,0.25,0],[0,0.5,0],[0,0.75,0],[1,0.25,0],[1,0.5,0],[1,0.75,0]];outlineConnect=0;fontColor=#8c4fff;fillColor=#8C4FFF;strokeColor=#ffffff;dashed=0;verticalLabelPosition=bottom;verticalAlign=top;align=center;html=1;fontSize=18;fontStyle=1;aspect=fixed;shape=mxgraph.aws4.resourceIcon;resIcon=mxgraph.aws4.vpc;shadow=1;fontFamily=Nanum Pen Script;fontSource=https%3A%2F%2Ffonts.googleapis.com%2Fcss%3Ffamily%3DNanum%2BPen%2BScript;movable=1;resizable=1;rotatable=1;deletable=1;editable=1;locked=0;connectable=1;" vertex="1" parent="1">
          <mxGeometry x="177.15000000000003" y="1790" width="30" height="30" as="geometry" />
        </mxCell>
        <mxCell id="9K4qRzpfIhnjsjTRQEIg-103" value="MY SQL" style="shape=cylinder3;boundedLbl=1;backgroundOutline=1;size=15;fontFamily=Nanum Pen Script;fontSize=17;fontColor=default;labelBackgroundColor=none;rounded=0;sketch=1;jiggle=2;curveFitting=1;strokeColor=default;align=center;verticalAlign=top;labelBorderColor=none;textShadow=0;gradientColor=default;shadow=1;labelPosition=center;verticalLabelPosition=bottom;fontSource=https%3A%2F%2Ffonts.googleapis.com%2Fcss%3Ffamily%3DNanum%2BPen%2BScript;html=1;" vertex="1" parent="1">
          <mxGeometry x="812.15" y="1890" width="60" height="100" as="geometry" />
        </mxCell>
        <mxCell id="9K4qRzpfIhnjsjTRQEIg-104" style="edgeStyle=orthogonalEdgeStyle;rounded=0;orthogonalLoop=1;jettySize=auto;html=1;entryX=0;entryY=0.5;entryDx=0;entryDy=0;sketch=1;curveFitting=1;jiggle=2;exitX=1;exitY=0.5;exitDx=0;exitDy=0;" edge="1" parent="1" source="9K4qRzpfIhnjsjTRQEIg-108" target="9K4qRzpfIhnjsjTRQEIg-100">
          <mxGeometry relative="1" as="geometry">
            <mxPoint x="657.15" y="2060" as="sourcePoint" />
          </mxGeometry>
        </mxCell>
        <mxCell id="9K4qRzpfIhnjsjTRQEIg-106" style="edgeStyle=orthogonalEdgeStyle;rounded=0;orthogonalLoop=1;jettySize=auto;html=1;entryX=0;entryY=0.5;entryDx=0;entryDy=0;sketch=1;curveFitting=1;jiggle=2;" edge="1" parent="1" source="9K4qRzpfIhnjsjTRQEIg-108" target="9K4qRzpfIhnjsjTRQEIg-94">
          <mxGeometry relative="1" as="geometry" />
        </mxCell>
        <mxCell id="9K4qRzpfIhnjsjTRQEIg-108" value="" style="rounded=0;whiteSpace=wrap;html=1;sketch=1;curveFitting=1;jiggle=2;strokeColor=#ed7100;shadow=1;" vertex="1" parent="1">
          <mxGeometry x="218.75" y="1940" width="419.1" height="250" as="geometry" />
        </mxCell>
        <mxCell id="9K4qRzpfIhnjsjTRQEIg-114" value="BANCO DE DADOS&lt;div&gt;(Relacional)&lt;/div&gt;" style="text;html=1;align=center;verticalAlign=middle;whiteSpace=wrap;rounded=0;sketch=1;curveFitting=1;jiggle=2;fontFamily=Nanum Pen Script;fontSize=21;fontColor=default;labelBackgroundColor=default;fontSource=https%3A%2F%2Ffonts.googleapis.com%2Fcss%3Ffamily%3DNanum%2BPen%2BScript;fontStyle=1" vertex="1" parent="1">
          <mxGeometry x="773.35" y="1803" width="137.6" height="40" as="geometry" />
        </mxCell>
        <mxCell id="9K4qRzpfIhnjsjTRQEIg-121" value="REDIS" style="image;sketch=0;aspect=fixed;html=1;points=[];align=center;fontSize=17;image=img/lib/mscae/Cache_Redis_Product.svg;fontFamily=Nanum Pen Script;fontSource=https%3A%2F%2Ffonts.googleapis.com%2Fcss%3Ffamily%3DNanum%2BPen%2BScript;" vertex="1" parent="1">
          <mxGeometry x="817.15" y="2259" width="50" height="42" as="geometry" />
        </mxCell>
        <mxCell id="9K4qRzpfIhnjsjTRQEIg-122" value="ElastiCache" style="sketch=0;points=[[0,0,0],[0.25,0,0],[0.5,0,0],[0.75,0,0],[1,0,0],[0,1,0],[0.25,1,0],[0.5,1,0],[0.75,1,0],[1,1,0],[0,0.25,0],[0,0.5,0],[0,0.75,0],[1,0.25,0],[1,0.5,0],[1,0.75,0]];outlineConnect=0;fontColor=#ba141a;fillColor=#ba141a;strokeColor=#ffffff;dashed=0;verticalLabelPosition=bottom;verticalAlign=top;align=left;html=1;fontSize=18;fontStyle=1;aspect=fixed;shape=mxgraph.aws4.resourceIcon;resIcon=mxgraph.aws4.elasticache;fontFamily=Nanum Pen Script;fontSource=https%3A%2F%2Ffonts.googleapis.com%2Fcss%3Ffamily%3DNanum%2BPen%2BScript;" vertex="1" parent="1">
          <mxGeometry x="750.15" y="2180" width="40" height="40" as="geometry" />
        </mxCell>
        <mxCell id="9K4qRzpfIhnjsjTRQEIg-123" value="&lt;span style=&quot;background-color: rgb(249, 249, 195);&quot;&gt;CONSOLIDAÇÃO DOS LANÇAMENTOS&lt;/span&gt;" style="shape=parallelogram;perimeter=parallelogramPerimeter;whiteSpace=wrap;html=1;fixedSize=1;fontFamily=Helvetica;fontSize=24;labelBackgroundColor=default;rounded=0;sketch=1;jiggle=2;curveFitting=1;align=center;verticalAlign=middle;fillColor=#ffff88;strokeColor=default;fillStyle=zigzag;fontColor=default;" vertex="1" parent="1">
          <mxGeometry x="329" y="1680" width="532.2" height="70" as="geometry" />
        </mxCell>
        <mxCell id="9K4qRzpfIhnjsjTRQEIg-124" value="BANCO DE DADOS&lt;div&gt;(Cache)&lt;/div&gt;" style="text;html=1;align=center;verticalAlign=middle;whiteSpace=wrap;rounded=0;sketch=1;curveFitting=1;jiggle=2;fontFamily=Nanum Pen Script;fontSize=21;fontColor=default;labelBackgroundColor=default;fontSource=https%3A%2F%2Ffonts.googleapis.com%2Fcss%3Ffamily%3DNanum%2BPen%2BScript;fontStyle=1" vertex="1" parent="1">
          <mxGeometry x="773.35" y="2130" width="137.6" height="40" as="geometry" />
        </mxCell>
        <mxCell id="9K4qRzpfIhnjsjTRQEIg-126" value="CloudW&lt;span style=&quot;background-color: initial; font-size: 17px;&quot;&gt;atch&lt;/span&gt;" style="sketch=0;points=[[0,0,0],[0.25,0,0],[0.5,0,0],[0.75,0,0],[1,0,0],[0,1,0],[0.25,1,0],[0.5,1,0],[0.75,1,0],[1,1,0],[0,0.25,0],[0,0.5,0],[0,0.75,0],[1,0.25,0],[1,0.5,0],[1,0.75,0]];points=[[0,0,0],[0.25,0,0],[0.5,0,0],[0.75,0,0],[1,0,0],[0,1,0],[0.25,1,0],[0.5,1,0],[0.75,1,0],[1,1,0],[0,0.25,0],[0,0.5,0],[0,0.75,0],[1,0.25,0],[1,0.5,0],[1,0.75,0]];outlineConnect=0;fontColor=#232F3E;fillColor=#E7157B;strokeColor=#ffffff;dashed=0;verticalLabelPosition=bottom;verticalAlign=top;align=center;html=1;fontSize=17;fontStyle=0;aspect=fixed;shape=mxgraph.aws4.resourceIcon;resIcon=mxgraph.aws4.cloudwatch_2;fontFamily=Nanum Pen Script;fontSource=https%3A%2F%2Ffonts.googleapis.com%2Fcss%3Ffamily%3DNanum%2BPen%2BScript;" vertex="1" parent="1">
          <mxGeometry x="589.8" y="2310" width="78" height="78" as="geometry" />
        </mxCell>
        <mxCell id="9K4qRzpfIhnjsjTRQEIg-127" style="edgeStyle=orthogonalEdgeStyle;rounded=0;orthogonalLoop=1;jettySize=auto;html=1;exitX=0.75;exitY=1;exitDx=0;exitDy=0;entryX=0;entryY=0.5;entryDx=0;entryDy=0;entryPerimeter=0;sketch=1;curveFitting=1;jiggle=2;" edge="1" parent="1" source="9K4qRzpfIhnjsjTRQEIg-108" target="9K4qRzpfIhnjsjTRQEIg-126">
          <mxGeometry relative="1" as="geometry">
            <Array as="points" />
          </mxGeometry>
        </mxCell>
        <mxCell id="9K4qRzpfIhnjsjTRQEIg-129" value="LOGS" style="text;html=1;align=center;verticalAlign=middle;whiteSpace=wrap;rounded=0;sketch=1;curveFitting=1;jiggle=2;fontFamily=Nanum Pen Script;fontSize=21;fontColor=default;labelBackgroundColor=default;fontSource=https%3A%2F%2Ffonts.googleapis.com%2Fcss%3Ffamily%3DNanum%2BPen%2BScript;fontStyle=1" vertex="1" parent="1">
          <mxGeometry x="580.08" y="2280" width="101" height="30" as="geometry" />
        </mxCell>
        <mxCell id="9K4qRzpfIhnjsjTRQEIg-130" value="LAMBDA" style="sketch=0;outlineConnect=0;fontColor=#232F3E;gradientColor=none;fillColor=#ED7100;strokeColor=none;dashed=0;verticalLabelPosition=bottom;verticalAlign=top;align=center;html=1;fontSize=17;fontStyle=0;aspect=fixed;pointerEvents=1;shape=mxgraph.aws4.lambda_function;fontFamily=Nanum Pen Script;fontSource=https%3A%2F%2Ffonts.googleapis.com%2Fcss%3Ffamily%3DNanum%2BPen%2BScript;" vertex="1" parent="1">
          <mxGeometry x="495.75" y="2010" width="83" height="83" as="geometry" />
        </mxCell>
        <mxCell id="9K4qRzpfIhnjsjTRQEIg-132" style="edgeStyle=orthogonalEdgeStyle;rounded=0;orthogonalLoop=1;jettySize=auto;html=1;" edge="1" parent="1" source="9K4qRzpfIhnjsjTRQEIg-131" target="9K4qRzpfIhnjsjTRQEIg-130">
          <mxGeometry relative="1" as="geometry" />
        </mxCell>
        <mxCell id="9K4qRzpfIhnjsjTRQEIg-131" value="EVENTBRIDGE" style="sketch=0;points=[[0,0,0],[0.25,0,0],[0.5,0,0],[0.75,0,0],[1,0,0],[0,1,0],[0.25,1,0],[0.5,1,0],[0.75,1,0],[1,1,0],[0,0.25,0],[0,0.5,0],[0,0.75,0],[1,0.25,0],[1,0.5,0],[1,0.75,0]];outlineConnect=0;fontColor=#232F3E;fillColor=#E7157B;strokeColor=#ffffff;dashed=0;verticalLabelPosition=bottom;verticalAlign=top;align=center;html=1;fontSize=17;fontStyle=0;aspect=fixed;shape=mxgraph.aws4.resourceIcon;resIcon=mxgraph.aws4.eventbridge;fontFamily=Nanum Pen Script;fontSource=https%3A%2F%2Ffonts.googleapis.com%2Fcss%3Ffamily%3DNanum%2BPen%2BScript;" vertex="1" parent="1">
          <mxGeometry x="268.75" y="2012.5" width="78" height="78" as="geometry" />
        </mxCell>
        <mxCell id="9K4qRzpfIhnjsjTRQEIg-133" value="SES" style="sketch=0;points=[[0,0,0],[0.25,0,0],[0.5,0,0],[0.75,0,0],[1,0,0],[0,1,0],[0.25,1,0],[0.5,1,0],[0.75,1,0],[1,1,0],[0,0.25,0],[0,0.5,0],[0,0.75,0],[1,0.25,0],[1,0.5,0],[1,0.75,0]];outlineConnect=0;fontColor=#232F3E;gradientColor=#4D72F3;gradientDirection=north;fillColor=#3334B9;strokeColor=#ffffff;dashed=0;verticalLabelPosition=bottom;verticalAlign=top;align=center;html=1;fontSize=17;fontStyle=0;aspect=fixed;shape=mxgraph.aws4.resourceIcon;resIcon=mxgraph.aws4.simple_email_service;fontFamily=Nanum Pen Script;fontSource=https%3A%2F%2Ffonts.googleapis.com%2Fcss%3Ffamily%3DNanum%2BPen%2BScript;" vertex="1" parent="1">
          <mxGeometry x="270" y="2310" width="78" height="78" as="geometry" />
        </mxCell>
        <mxCell id="9K4qRzpfIhnjsjTRQEIg-134" style="edgeStyle=orthogonalEdgeStyle;rounded=0;orthogonalLoop=1;jettySize=auto;html=1;exitX=0.5;exitY=1;exitDx=0;exitDy=0;entryX=1;entryY=0.5;entryDx=0;entryDy=0;entryPerimeter=0;sketch=1;curveFitting=1;jiggle=2;" edge="1" parent="1" source="9K4qRzpfIhnjsjTRQEIg-108" target="9K4qRzpfIhnjsjTRQEIg-133">
          <mxGeometry relative="1" as="geometry" />
        </mxCell>
        <mxCell id="9K4qRzpfIhnjsjTRQEIg-135" value="EMAIL" style="text;html=1;align=center;verticalAlign=middle;whiteSpace=wrap;rounded=0;sketch=1;curveFitting=1;jiggle=2;fontFamily=Nanum Pen Script;fontSize=21;fontColor=default;labelBackgroundColor=default;fontSource=https%3A%2F%2Ffonts.googleapis.com%2Fcss%3Ffamily%3DNanum%2BPen%2BScript;fontStyle=1" vertex="1" parent="1">
          <mxGeometry x="258.00000000000006" y="2280" width="101" height="30" as="geometry" />
        </mxCell>
      </root>
    </mxGraphModel>
  </diagram>
</mxfile>
